<svg xmlns="http://www.w3.org/2000/svg" xmlns:xlink="http://www.w3.org/1999/xlink" contentStyleType="text/css" data-diagram-type="SEQUENCE" height="713px" preserveAspectRatio="none" style="width:1105px;height:713px;background:#FFFFFF;" version="1.1" viewBox="0 0 1105 713" width="1105px" zoomAndPan="magnify"><defs/><g><g><title>invoiceView. InvoiceView</title><rect fill="#FFFFFF" height="495.3652" style="stroke:#181818;stroke-width:1;" width="10" x="260.8765" y="116.9121"/></g><g><title>invoiceController. InvoiceController</title><rect fill="#FFFFFF" height="432.7832" style="stroke:#181818;stroke-width:1;" width="10" x="463.6274" y="148.2031"/></g><g><title>claim. Claim</title><rect fill="#FFFFFF" height="93.873" style="stroke:#181818;stroke-width:1;" width="10" x="635.3555" y="179.4941"/></g><g><title>claim. Claim</title><rect fill="#FFFFFF" height="93.873" style="stroke:#181818;stroke-width:1;" width="10" x="635.3555" y="304.6582"/></g><g><title>operation. Operation</title><rect fill="#FFFFFF" height="31.291" style="stroke:#181818;stroke-width:1;" width="10" x="773.0898" y="210.7852"/></g><g><title>part. Part</title><rect fill="#FFFFFF" height="31.291" style="stroke:#181818;stroke-width:1;" width="10" x="881.6997" y="335.9492"/></g><g><title>invoice. Invoice</title><rect fill="#FFFFFF" height="119.873" style="stroke:#181818;stroke-width:1;" width="10" x="974.3477" y="429.8223"/></g><g><title>Manager</title><rect fill="#000000" fill-opacity="0.00000" height="546.6563" width="8" x="31.6274" y="83.6211"/><line style="stroke:#181818;stroke-width:0.5;stroke-dasharray:5,5;" x1="35" x2="35" y1="83.6211" y2="630.2773"/></g><g><title>invoiceView. InvoiceView</title><rect fill="#000000" fill-opacity="0.00000" height="546.6563" width="8" x="261.8765" y="83.6211"/><line style="stroke:#181818;stroke-width:0.5;stroke-dasharray:5,5;" x1="265.6733" x2="265.6733" y1="83.6211" y2="630.2773"/></g><g><title>invoiceController. InvoiceController</title><rect fill="#000000" fill-opacity="0.00000" height="546.6563" width="8" x="464.6274" y="83.6211"/><line style="stroke:#181818;stroke-width:0.5;stroke-dasharray:5,5;" x1="468.0796" x2="468.0796" y1="83.6211" y2="630.2773"/></g><g><title>claim. Claim</title><rect fill="#000000" fill-opacity="0.00000" height="546.6563" width="8" x="636.3555" y="83.6211"/><line style="stroke:#181818;stroke-width:0.5;stroke-dasharray:5,5;" x1="640.2417" x2="640.2417" y1="83.6211" y2="630.2773"/></g><g><title>operation. Operation</title><rect fill="#000000" fill-opacity="0.00000" height="546.6563" width="8" x="774.0898" y="83.6211"/><line style="stroke:#181818;stroke-width:0.5;stroke-dasharray:5,5;" x1="777.2695" x2="777.2695" y1="83.6211" y2="630.2773"/></g><g><title>part. Part</title><rect fill="#000000" fill-opacity="0.00000" height="546.6563" width="8" x="882.6997" y="83.6211"/><line style="stroke:#181818;stroke-width:0.5;stroke-dasharray:5,5;" x1="885.9102" x2="885.9102" y1="83.6211" y2="630.2773"/></g><g><title>invoice. Invoice</title><rect fill="#000000" fill-opacity="0.00000" height="546.6563" width="8" x="975.3477" y="83.6211"/><line style="stroke:#181818;stroke-width:0.5;stroke-dasharray:5,5;" x1="978.4893" x2="978.4893" y1="83.6211" y2="630.2773"/></g><g class="participant participant-head" data-participant="Manager"><text fill="#000000" font-family="sans-serif" font-size="14" lengthAdjust="spacing" textLength="55.2549" x="5" y="80.1074">Manager</text><ellipse cx="35.6274" cy="13.5" fill="#E2E2F0" rx="8" ry="8" style="stroke:#181818;stroke-width:0.5;"/><path d="M35.6274,21.5 L35.6274,48.5 M22.6274,29.5 L48.6274,29.5 M35.6274,48.5 L22.6274,63.5 M35.6274,48.5 L48.6274,63.5" fill="none" style="stroke:#181818;stroke-width:0.5;"/></g><g class="participant participant-tail" data-participant="Manager"><text fill="#000000" font-family="sans-serif" font-size="14" lengthAdjust="spacing" textLength="55.2549" x="5" y="644.3848">Manager</text><ellipse cx="35.6274" cy="656.3984" fill="#E2E2F0" rx="8" ry="8" style="stroke:#181818;stroke-width:0.5;"/><path d="M35.6274,664.3984 L35.6274,691.3984 M22.6274,672.3984 L48.6274,672.3984 M35.6274,691.3984 L22.6274,706.3984 M35.6274,691.3984 L48.6274,706.3984" fill="none" style="stroke:#181818;stroke-width:0.5;"/></g><g class="participant participant-head" data-participant="invoiceView"><text fill="#000000" font-family="sans-serif" font-size="14" lengthAdjust="spacing" textLength="156.4063" x="184.6733" y="80.1074">invoiceView: InvoiceView</text><path d="M245.3765,37 L245.3765,61 M245.3765,49 L262.3765,49" fill="none" style="stroke:#181818;stroke-width:0.5;"/><ellipse cx="274.3765" cy="49" fill="#E2E2F0" rx="12" ry="12" style="stroke:#181818;stroke-width:0.5;"/></g><g class="participant participant-tail" data-participant="invoiceView"><text fill="#000000" font-family="sans-serif" font-size="14" lengthAdjust="spacing" textLength="156.4063" x="184.6733" y="644.3848">invoiceView: InvoiceView</text><path d="M245.3765,651.8984 L245.3765,675.8984 M245.3765,663.8984 L262.3765,663.8984" fill="none" style="stroke:#181818;stroke-width:0.5;"/><ellipse cx="274.3765" cy="663.8984" fill="#E2E2F0" rx="12" ry="12" style="stroke:#181818;stroke-width:0.5;"/></g><g class="participant participant-head" data-participant="invoiceController"><text fill="#000000" font-family="sans-serif" font-size="14" lengthAdjust="spacing" textLength="217.0957" x="357.0796" y="80.1074">invoiceController: InvoiceController</text><ellipse cx="468.6274" cy="49" fill="#E2E2F0" rx="12" ry="12" style="stroke:#181818;stroke-width:0.5;"/><polygon fill="#181818" points="464.6274,37,470.6274,32,468.6274,37,470.6274,42,464.6274,37" style="stroke:#181818;stroke-width:1;"/></g><g class="participant participant-tail" data-participant="invoiceController"><text fill="#000000" font-family="sans-serif" font-size="14" lengthAdjust="spacing" textLength="217.0957" x="357.0796" y="644.3848">invoiceController: InvoiceController</text><ellipse cx="468.6274" cy="663.8984" fill="#E2E2F0" rx="12" ry="12" style="stroke:#181818;stroke-width:0.5;"/><polygon fill="#181818" points="464.6274,651.8984,470.6274,646.8984,468.6274,651.8984,470.6274,656.8984,464.6274,651.8984" style="stroke:#181818;stroke-width:1;"/></g><g class="participant participant-head" data-participant="claim"><text fill="#000000" font-family="sans-serif" font-size="14" lengthAdjust="spacing" textLength="76.2275" x="599.2417" y="80.1074">claim: Claim</text><ellipse cx="640.3555" cy="49" fill="#E2E2F0" rx="12" ry="12" style="stroke:#181818;stroke-width:0.5;"/><line style="stroke:#181818;stroke-width:0.5;" x1="628.3555" x2="652.3555" y1="63" y2="63"/></g><g class="participant participant-tail" data-participant="claim"><text fill="#000000" font-family="sans-serif" font-size="14" lengthAdjust="spacing" textLength="76.2275" x="599.2417" y="644.3848">claim: Claim</text><ellipse cx="640.3555" cy="663.8984" fill="#E2E2F0" rx="12" ry="12" style="stroke:#181818;stroke-width:0.5;"/><line style="stroke:#181818;stroke-width:0.5;" x1="628.3555" x2="652.3555" y1="677.8984" y2="677.8984"/></g><g class="participant participant-head" data-participant="operation"><text fill="#000000" font-family="sans-serif" font-size="14" lengthAdjust="spacing" textLength="127.6406" x="711.2695" y="80.1074">operation: Operation</text><ellipse cx="778.0898" cy="49" fill="#E2E2F0" rx="12" ry="12" style="stroke:#181818;stroke-width:0.5;"/><line style="stroke:#181818;stroke-width:0.5;" x1="766.0898" x2="790.0898" y1="63" y2="63"/></g><g class="participant participant-tail" data-participant="operation"><text fill="#000000" font-family="sans-serif" font-size="14" lengthAdjust="spacing" textLength="127.6406" x="711.2695" y="644.3848">operation: Operation</text><ellipse cx="778.0898" cy="663.8984" fill="#E2E2F0" rx="12" ry="12" style="stroke:#181818;stroke-width:0.5;"/><line style="stroke:#181818;stroke-width:0.5;" x1="766.0898" x2="790.0898" y1="677.8984" y2="677.8984"/></g><g class="participant participant-head" data-participant="part"><text fill="#000000" font-family="sans-serif" font-size="14" lengthAdjust="spacing" textLength="57.5791" x="854.9102" y="80.1074">part: Part</text><ellipse cx="886.6997" cy="49" fill="#E2E2F0" rx="12" ry="12" style="stroke:#181818;stroke-width:0.5;"/><line style="stroke:#181818;stroke-width:0.5;" x1="874.6997" x2="898.6997" y1="63" y2="63"/></g><g class="participant participant-tail" data-participant="part"><text fill="#000000" font-family="sans-serif" font-size="14" lengthAdjust="spacing" textLength="57.5791" x="854.9102" y="644.3848">part: Part</text><ellipse cx="886.6997" cy="663.8984" fill="#E2E2F0" rx="12" ry="12" style="stroke:#181818;stroke-width:0.5;"/><line style="stroke:#181818;stroke-width:0.5;" x1="874.6997" x2="898.6997" y1="677.8984" y2="677.8984"/></g><g class="participant participant-head" data-participant="invoice"><text fill="#000000" font-family="sans-serif" font-size="14" lengthAdjust="spacing" textLength="95.7168" x="928.4893" y="80.1074">invoice: Invoice</text><ellipse cx="979.3477" cy="49" fill="#E2E2F0" rx="12" ry="12" style="stroke:#181818;stroke-width:0.5;"/><line style="stroke:#181818;stroke-width:0.5;" x1="967.3477" x2="991.3477" y1="63" y2="63"/></g><g class="participant participant-tail" data-participant="invoice"><text fill="#000000" font-family="sans-serif" font-size="14" lengthAdjust="spacing" textLength="95.7168" x="928.4893" y="644.3848">invoice: Invoice</text><ellipse cx="979.3477" cy="663.8984" fill="#E2E2F0" rx="12" ry="12" style="stroke:#181818;stroke-width:0.5;"/><line style="stroke:#181818;stroke-width:0.5;" x1="967.3477" x2="991.3477" y1="677.8984" y2="677.8984"/></g><g><title>invoiceView. InvoiceView</title><rect fill="#FFFFFF" height="495.3652" style="stroke:#181818;stroke-width:1;" width="10" x="260.8765" y="116.9121"/></g><g><title>invoiceController. InvoiceController</title><rect fill="#FFFFFF" height="432.7832" style="stroke:#181818;stroke-width:1;" width="10" x="463.6274" y="148.2031"/></g><g><title>claim. Claim</title><rect fill="#FFFFFF" height="93.873" style="stroke:#181818;stroke-width:1;" width="10" x="635.3555" y="179.4941"/></g><g><title>claim. Claim</title><rect fill="#FFFFFF" height="93.873" style="stroke:#181818;stroke-width:1;" width="10" x="635.3555" y="304.6582"/></g><g><title>operation. Operation</title><rect fill="#FFFFFF" height="31.291" style="stroke:#181818;stroke-width:1;" width="10" x="773.0898" y="210.7852"/></g><g><title>part. Part</title><rect fill="#FFFFFF" height="31.291" style="stroke:#181818;stroke-width:1;" width="10" x="881.6997" y="335.9492"/></g><g><title>invoice. Invoice</title><rect fill="#FFFFFF" height="119.873" style="stroke:#181818;stroke-width:1;" width="10" x="974.3477" y="429.8223"/></g><g class="message" data-participant-1="Manager" data-participant-2="invoiceView"><polygon fill="#181818" points="248.8765,112.9121,258.8765,116.9121,248.8765,120.9121,252.8765,116.9121" style="stroke:#181818;stroke-width:1;"/><line style="stroke:#181818;stroke-width:1;" x1="35.6274" x2="254.8765" y1="116.9121" y2="116.9121"/><text fill="#000000" font-family="sans-serif" font-size="13" font-weight="bold" lengthAdjust="spacing" textLength="7.23" x="42.6274" y="111.6494">1</text><text fill="#000000" font-family="sans-serif" font-size="13" lengthAdjust="spacing" textLength="195.019" x="53.8574" y="111.6494">&#1085;&#1072;&#1090;&#1080;&#1089;&#1082;&#1072;&#1108; "&#1057;&#1092;&#1086;&#1088;&#1084;&#1091;&#1074;&#1072;&#1090;&#1080; &#1088;&#1072;&#1093;&#1091;&#1085;&#1086;&#1082;"</text></g><g class="message" data-participant-1="invoiceView" data-participant-2="invoiceController"><polygon fill="#181818" points="451.6274,144.2031,461.6274,148.2031,451.6274,152.2031,455.6274,148.2031" style="stroke:#181818;stroke-width:1;"/><line style="stroke:#181818;stroke-width:1;" x1="270.8765" x2="457.6274" y1="148.2031" y2="148.2031"/><text fill="#000000" font-family="sans-serif" font-size="13" font-weight="bold" lengthAdjust="spacing" textLength="7.23" x="277.8765" y="142.9404">2</text><text fill="#000000" font-family="sans-serif" font-size="13" lengthAdjust="spacing" textLength="142.3462" x="289.1064" y="142.9404">generateInvoice(claimId)</text></g><g class="message" data-participant-1="invoiceController" data-participant-2="claim"><polygon fill="#181818" points="623.3555,175.4941,633.3555,179.4941,623.3555,183.4941,627.3555,179.4941" style="stroke:#181818;stroke-width:1;"/><line style="stroke:#181818;stroke-width:1;" x1="473.6274" x2="629.3555" y1="179.4941" y2="179.4941"/><text fill="#000000" font-family="sans-serif" font-size="13" font-weight="bold" lengthAdjust="spacing" textLength="7.23" x="480.6274" y="174.2314">3</text><text fill="#000000" font-family="sans-serif" font-size="13" lengthAdjust="spacing" textLength="131.498" x="491.8574" y="174.2314">getOperations(claimId)</text></g><g class="message" data-participant-1="claim" data-participant-2="operation"><polygon fill="#181818" points="761.0898,206.7852,771.0898,210.7852,761.0898,214.7852,765.0898,210.7852" style="stroke:#181818;stroke-width:1;"/><line style="stroke:#181818;stroke-width:1;" x1="645.3555" x2="767.0898" y1="210.7852" y2="210.7852"/><text fill="#000000" font-family="sans-serif" font-size="13" font-weight="bold" lengthAdjust="spacing" textLength="7.23" x="652.3555" y="205.5225">4</text><text fill="#000000" font-family="sans-serif" font-size="13" lengthAdjust="spacing" textLength="90.3208" x="663.5854" y="205.5225">getOperations()</text></g><g class="message" data-participant-1="operation" data-participant-2="claim"><polygon fill="#181818" points="656.3555,238.0762,646.3555,242.0762,656.3555,246.0762,652.3555,242.0762" style="stroke:#181818;stroke-width:1;"/><line style="stroke:#181818;stroke-width:1;stroke-dasharray:2,2;" x1="650.3555" x2="777.0898" y1="242.0762" y2="242.0762"/><text fill="#000000" font-family="sans-serif" font-size="13" font-weight="bold" lengthAdjust="spacing" textLength="7.23" x="662.3555" y="236.8135">5</text><text fill="#000000" font-family="sans-serif" font-size="13" lengthAdjust="spacing" textLength="92.5044" x="673.5854" y="236.8135">List&lt;Operation&gt;</text></g><g class="message" data-participant-1="claim" data-participant-2="invoiceController"><polygon fill="#181818" points="484.6274,269.3672,474.6274,273.3672,484.6274,277.3672,480.6274,273.3672" style="stroke:#181818;stroke-width:1;"/><line style="stroke:#181818;stroke-width:1;stroke-dasharray:2,2;" x1="478.6274" x2="639.3555" y1="273.3672" y2="273.3672"/><text fill="#000000" font-family="sans-serif" font-size="13" font-weight="bold" lengthAdjust="spacing" textLength="7.23" x="490.6274" y="268.1045">6</text><text fill="#000000" font-family="sans-serif" font-size="13" lengthAdjust="spacing" textLength="92.5044" x="501.8574" y="268.1045">List&lt;Operation&gt;</text></g><g class="message" data-participant-1="invoiceController" data-participant-2="claim"><polygon fill="#181818" points="623.3555,300.6582,633.3555,304.6582,623.3555,308.6582,627.3555,304.6582" style="stroke:#181818;stroke-width:1;"/><line style="stroke:#181818;stroke-width:1;" x1="473.6274" x2="629.3555" y1="304.6582" y2="304.6582"/><text fill="#000000" font-family="sans-serif" font-size="13" font-weight="bold" lengthAdjust="spacing" textLength="7.23" x="480.6274" y="299.3955">7</text><text fill="#000000" font-family="sans-serif" font-size="13" lengthAdjust="spacing" textLength="98.249" x="491.8574" y="299.3955">getParts(claimId)</text></g><g class="message" data-participant-1="claim" data-participant-2="part"><polygon fill="#181818" points="869.6997,331.9492,879.6997,335.9492,869.6997,339.9492,873.6997,335.9492" style="stroke:#181818;stroke-width:1;"/><line style="stroke:#181818;stroke-width:1;" x1="645.3555" x2="875.6997" y1="335.9492" y2="335.9492"/><text fill="#000000" font-family="sans-serif" font-size="13" font-weight="bold" lengthAdjust="spacing" textLength="7.23" x="652.3555" y="330.6865">8</text><text fill="#000000" font-family="sans-serif" font-size="13" lengthAdjust="spacing" textLength="57.0718" x="663.5854" y="330.6865">getParts()</text></g><g class="message" data-participant-1="part" data-participant-2="claim"><polygon fill="#181818" points="656.3555,363.2402,646.3555,367.2402,656.3555,371.2402,652.3555,367.2402" style="stroke:#181818;stroke-width:1;"/><line style="stroke:#181818;stroke-width:1;stroke-dasharray:2,2;" x1="650.3555" x2="885.6997" y1="367.2402" y2="367.2402"/><text fill="#000000" font-family="sans-serif" font-size="13" font-weight="bold" lengthAdjust="spacing" textLength="7.23" x="662.3555" y="361.9775">9</text><text fill="#000000" font-family="sans-serif" font-size="13" lengthAdjust="spacing" textLength="59.2554" x="673.5854" y="361.9775">List&lt;Part&gt;</text></g><g class="message" data-participant-1="claim" data-participant-2="invoiceController"><polygon fill="#181818" points="484.6274,394.5313,474.6274,398.5313,484.6274,402.5313,480.6274,398.5313" style="stroke:#181818;stroke-width:1;"/><line style="stroke:#181818;stroke-width:1;stroke-dasharray:2,2;" x1="478.6274" x2="639.3555" y1="398.5313" y2="398.5313"/><text fill="#000000" font-family="sans-serif" font-size="13" font-weight="bold" lengthAdjust="spacing" textLength="14.46" x="490.6274" y="393.2686">10</text><text fill="#000000" font-family="sans-serif" font-size="13" lengthAdjust="spacing" textLength="59.2554" x="509.0874" y="393.2686">List&lt;Part&gt;</text></g><g class="message" data-participant-1="invoiceController" data-participant-2="invoice"><polygon fill="#181818" points="962.3477,425.8223,972.3477,429.8223,962.3477,433.8223,966.3477,429.8223" style="stroke:#181818;stroke-width:1;"/><line style="stroke:#181818;stroke-width:1;" x1="473.6274" x2="968.3477" y1="429.8223" y2="429.8223"/><text fill="#000000" font-family="sans-serif" font-size="13" font-weight="bold" lengthAdjust="spacing" textLength="14.46" x="480.6274" y="424.5596">11</text><text fill="#000000" font-family="sans-serif" font-size="13" lengthAdjust="spacing" textLength="50.5908" x="499.0874" y="424.5596">&#171;create&#187;</text></g><g class="message" data-participant-1="invoice" data-participant-2="invoice"><line style="stroke:#181818;stroke-width:1;" x1="984.3477" x2="1026.3477" y1="461.1133" y2="461.1133"/><line style="stroke:#181818;stroke-width:1;" x1="1026.3477" x2="1026.3477" y1="461.1133" y2="474.1133"/><line style="stroke:#181818;stroke-width:1;" x1="985.3477" x2="1026.3477" y1="474.1133" y2="474.1133"/><polygon fill="#181818" points="995.3477,470.1133,985.3477,474.1133,995.3477,478.1133,991.3477,474.1133" style="stroke:#181818;stroke-width:1;"/><text fill="#000000" font-family="sans-serif" font-size="13" font-weight="bold" lengthAdjust="spacing" textLength="14.46" x="991.3477" y="455.8506">12</text><text fill="#000000" font-family="sans-serif" font-size="13" lengthAdjust="spacing" textLength="88.8672" x="1009.8076" y="455.8506">calculateTotal()</text></g><g class="message" data-participant-1="invoice" data-participant-2="invoice"><line style="stroke:#181818;stroke-width:1;" x1="984.3477" x2="1026.3477" y1="505.4043" y2="505.4043"/><line style="stroke:#181818;stroke-width:1;" x1="1026.3477" x2="1026.3477" y1="505.4043" y2="518.4043"/><line style="stroke:#181818;stroke-width:1;" x1="985.3477" x2="1026.3477" y1="518.4043" y2="518.4043"/><polygon fill="#181818" points="995.3477,514.4043,985.3477,518.4043,995.3477,522.4043,991.3477,518.4043" style="stroke:#181818;stroke-width:1;"/><text fill="#000000" font-family="sans-serif" font-size="13" font-weight="bold" lengthAdjust="spacing" textLength="14.46" x="991.3477" y="500.1416">13</text><text fill="#000000" font-family="sans-serif" font-size="13" lengthAdjust="spacing" textLength="36.1182" x="1009.8076" y="500.1416">save()</text></g><g class="message" data-participant-1="invoice" data-participant-2="invoiceController"><polygon fill="#181818" points="484.6274,545.6953,474.6274,549.6953,484.6274,553.6953,480.6274,549.6953" style="stroke:#181818;stroke-width:1;"/><line style="stroke:#181818;stroke-width:1;stroke-dasharray:2,2;" x1="478.6274" x2="978.3477" y1="549.6953" y2="549.6953"/><text fill="#000000" font-family="sans-serif" font-size="13" font-weight="bold" lengthAdjust="spacing" textLength="14.46" x="490.6274" y="544.4326">14</text><text fill="#000000" font-family="sans-serif" font-size="13" lengthAdjust="spacing" textLength="67.9263" x="509.0874" y="544.4326">invoiceData</text></g><g class="message" data-participant-1="invoiceController" data-participant-2="invoiceView"><polygon fill="#181818" points="281.8765,576.9863,271.8765,580.9863,281.8765,584.9863,277.8765,580.9863" style="stroke:#181818;stroke-width:1;"/><line style="stroke:#181818;stroke-width:1;stroke-dasharray:2,2;" x1="275.8765" x2="467.6274" y1="580.9863" y2="580.9863"/><text fill="#000000" font-family="sans-serif" font-size="13" font-weight="bold" lengthAdjust="spacing" textLength="14.46" x="287.8765" y="575.7236">15</text><text fill="#000000" font-family="sans-serif" font-size="13" lengthAdjust="spacing" textLength="134.8306" x="306.3364" y="575.7236">&#1089;&#1092;&#1086;&#1088;&#1084;&#1086;&#1074;&#1072;&#1085;&#1080;&#1081; &#1088;&#1072;&#1093;&#1091;&#1085;&#1086;&#1082;</text></g><g class="message" data-participant-1="invoiceView" data-participant-2="Manager"><polygon fill="#181818" points="46.6274,608.2773,36.6274,612.2773,46.6274,616.2773,42.6274,612.2773" style="stroke:#181818;stroke-width:1;"/><line style="stroke:#181818;stroke-width:1;stroke-dasharray:2,2;" x1="40.6274" x2="264.8765" y1="612.2773" y2="612.2773"/><text fill="#000000" font-family="sans-serif" font-size="13" font-weight="bold" lengthAdjust="spacing" textLength="14.46" x="52.6274" y="607.0146">16</text><text fill="#000000" font-family="sans-serif" font-size="13" lengthAdjust="spacing" textLength="134.2783" x="71.0874" y="607.0146">&#1074;&#1110;&#1076;&#1086;&#1073;&#1088;&#1072;&#1078;&#1077;&#1085;&#1085;&#1103; &#1088;&#1072;&#1093;&#1091;&#1085;&#1082;&#1091;</text></g><!--SRC=[ZLEzRjim4Dxv58IMDeFhNJ2yf4k05ErGPB_GX4j08bsASf4jQTevIz2zRv04RP4QTPw1VACSAOcYBIND8jtFztsyEzoz-cJCgigdqrK1qjHbyOQfSbhnppMNZ4yM0fOQIaAWDahMvIdNQ3EZD7q74fRUFLMrN80-eqAkbM3yHF0l52gQ9NvEZted8qn9erNHCGuRj-0wvVNHoEv36U7I27D6MG6Y3BHWvVJG_s9QhRW68vGCaEZbz7rdHkWAj0aeR-Jq0tvZhYqfBIyMbH7Ipe9EvZj3oAdTsXltrTwx2xj1wvfczgVxPX_SkVtdBkrTawNethZl6DZQ1xl9_8J56WnFrGX9fVkNak7bTCcbRuktfRqECpbQ70mKUnOXKJcHGlrcibxJn65L8ueXGXeqqlg9xrCJJWIH7Zv9tZmMbPb5wfmi-0YrVVA9KJmZqLJy_xRz2hoWux0u2I51-XG9-K5t7hjJLS2-eAS1yTbskitDwMp6D4VyV3xOXiZTPJ0eM5qWxgCoK61VewWArXnpVVA9ujlOMp2GLhzVGbh-u9xSHNSzU2XuFNWmz_RltlsCgAVhldD6-49tl7YjT-w7_OKIjrxG_h6_KN3hhbBzZRiSqGy7-WW0]--></g></svg>