<svg xmlns="http://www.w3.org/2000/svg" xmlns:xlink="http://www.w3.org/1999/xlink" contentStyleType="text/css" data-diagram-type="CLASS" height="1130px" preserveAspectRatio="none" style="width:983px;height:1130px;background:#FFFFFF;" version="1.1" viewBox="0 0 983 1130" width="983px" zoomAndPan="magnify"><defs/><g><!--class InvoiceController--><g class="entity" data-entity="InvoiceController" data-source-line="8" data-uid="ent0002" id="entity_InvoiceController"><rect fill="#F1F1F1" height="271.4531" rx="2.5" ry="2.5" style="stroke:#181818;stroke-width:0.5;" width="235.7197" x="483" y="7"/><ellipse cx="544.0859" cy="23" fill="#ADD1B2" rx="11" ry="11" style="stroke:#181818;stroke-width:1;"/><path d="M546.8516,18.875 Q547.0078,18.6563 547.1953,18.5469 Q547.3828,18.4375 547.6016,18.4375 Q547.9766,18.4375 548.2109,18.7031 Q548.4453,18.9531 548.4453,19.5625 L548.4453,21.0156 Q548.4453,21.625 548.2109,21.8906 Q547.9766,22.1563 547.6016,22.1563 Q547.2578,22.1563 547.0547,21.9531 Q546.8516,21.7656 546.7422,21.25 Q546.6953,20.8906 546.5078,20.7031 Q546.1797,20.3281 545.5703,20.1094 Q544.9609,19.8906 544.3359,19.8906 Q543.5703,19.8906 542.9297,20.2188 Q542.3047,20.5469 541.8047,21.2969 Q541.3203,22.0469 541.3203,23.0781 L541.3203,24.1719 Q541.3203,25.4063 542.2109,26.2344 Q543.1016,27.0469 544.6953,27.0469 Q545.6328,27.0469 546.2891,26.7969 Q546.6797,26.6406 547.1016,26.2031 Q547.3672,25.9375 547.5078,25.8594 Q547.6641,25.7813 547.8672,25.7813 Q548.1953,25.7813 548.4453,26.0469 Q548.7109,26.2969 548.7109,26.6406 Q548.7109,26.9844 548.3672,27.3906 Q547.8672,27.9688 547.0703,28.2969 Q545.9922,28.75 544.6953,28.75 Q543.1797,28.75 541.9766,28.125 Q540.9922,27.625 540.3047,26.5625 Q539.6172,25.4844 539.6172,24.2031 L539.6172,23.0469 Q539.6172,21.7188 540.2266,20.5781 Q540.8516,19.4219 541.9453,18.8125 Q543.0391,18.1875 544.2734,18.1875 Q545.0078,18.1875 545.6484,18.3594 Q546.3047,18.5156 546.8516,18.875 Z " fill="#000000"/><text fill="#000000" font-family="sans-serif" font-size="14" lengthAdjust="spacing" textLength="105.0479" x="564.5859" y="28.7969">InvoiceController</text><line style="stroke:#181818;stroke-width:0.5;" x1="484" x2="717.7197" y1="39" y2="39"/><line style="stroke:#181818;stroke-width:0.5;" x1="484" x2="717.7197" y1="47" y2="47"/><text fill="#000000" font-family="sans-serif" font-size="14" lengthAdjust="spacing" textLength="131.0928" x="489" y="66.1074">+createDraft(claimId)</text><text fill="#000000" font-family="sans-serif" font-size="14" lengthAdjust="spacing" textLength="140.458" x="489" y="84.7285">+recalculate(invoiceId)</text><text fill="#000000" font-family="sans-serif" font-size="14" lengthAdjust="spacing" textLength="105.4375" x="489" y="103.3496">+issue(invoiceId)</text><text fill="#000000" font-family="sans-serif" font-size="14" lengthAdjust="spacing" textLength="113.2236" x="489" y="121.9707">+cancel(invoiceId)</text><text fill="#000000" font-family="sans-serif" font-size="14" lengthAdjust="spacing" textLength="170.8301" x="489" y="140.5918">+updateDueDate(invoiceId)</text><text fill="#000000" font-family="sans-serif" font-size="14" lengthAdjust="spacing" textLength="158.3545" x="489" y="159.2129">+addOtherItem(invoiceId)</text><text fill="#000000" font-family="sans-serif" font-size="14" lengthAdjust="spacing" textLength="223.7197" x="489" y="177.834">+updateOtherItem(invoiceId, itemId)</text><text fill="#000000" font-family="sans-serif" font-size="14" lengthAdjust="spacing" textLength="219.0439" x="489" y="196.4551">+deleteOtherItem(invoiceId, itemId)</text><text fill="#000000" font-family="sans-serif" font-size="14" lengthAdjust="spacing" textLength="136.5752" x="489" y="215.0762">+getInvoice(invoiceId)</text><text fill="#000000" font-family="sans-serif" font-size="14" lengthAdjust="spacing" textLength="159.1338" x="489" y="233.6973">+getInvoiceFull(invoiceId)</text><text fill="#000000" font-family="sans-serif" font-size="14" lengthAdjust="spacing" textLength="133.4238" x="489" y="252.3184">+getByClaim(claimId)</text><text fill="#000000" font-family="sans-serif" font-size="14" lengthAdjust="spacing" textLength="142.0166" x="489" y="270.9395">+getOverdueInvoices()</text></g><!--class InvoiceService--><g class="entity" data-entity="InvoiceService" data-source-line="26" data-uid="ent0003" id="entity_InvoiceService"><rect fill="#F1F1F1" height="215.5898" rx="2.5" ry="2.5" style="stroke:#181818;stroke-width:0.5;" width="321.6885" x="440" y="338"/><ellipse cx="551.0737" cy="354" fill="#ADD1B2" rx="11" ry="11" style="stroke:#181818;stroke-width:1;"/><path d="M553.8394,349.875 Q553.9956,349.6563 554.1831,349.5469 Q554.3706,349.4375 554.5894,349.4375 Q554.9644,349.4375 555.1987,349.7031 Q555.4331,349.9531 555.4331,350.5625 L555.4331,352.0156 Q555.4331,352.625 555.1987,352.8906 Q554.9644,353.1563 554.5894,353.1563 Q554.2456,353.1563 554.0425,352.9531 Q553.8394,352.7656 553.73,352.25 Q553.6831,351.8906 553.4956,351.7031 Q553.1675,351.3281 552.5581,351.1094 Q551.9487,350.8906 551.3237,350.8906 Q550.5581,350.8906 549.9175,351.2188 Q549.2925,351.5469 548.7925,352.2969 Q548.3081,353.0469 548.3081,354.0781 L548.3081,355.1719 Q548.3081,356.4063 549.1987,357.2344 Q550.0894,358.0469 551.6831,358.0469 Q552.6206,358.0469 553.2769,357.7969 Q553.6675,357.6406 554.0894,357.2031 Q554.355,356.9375 554.4956,356.8594 Q554.6519,356.7813 554.855,356.7813 Q555.1831,356.7813 555.4331,357.0469 Q555.6987,357.2969 555.6987,357.6406 Q555.6987,357.9844 555.355,358.3906 Q554.855,358.9688 554.0581,359.2969 Q552.98,359.75 551.6831,359.75 Q550.1675,359.75 548.9644,359.125 Q547.98,358.625 547.2925,357.5625 Q546.605,356.4844 546.605,355.2031 L546.605,354.0469 Q546.605,352.7188 547.2144,351.5781 Q547.8394,350.4219 548.9331,349.8125 Q550.0269,349.1875 551.2612,349.1875 Q551.9956,349.1875 552.6362,349.3594 Q553.2925,349.5156 553.8394,349.875 Z " fill="#000000"/><text fill="#000000" font-family="sans-serif" font-size="14" lengthAdjust="spacing" textLength="91.041" x="571.5737" y="359.7969">InvoiceService</text><line style="stroke:#181818;stroke-width:0.5;" x1="441" x2="760.6885" y1="370" y2="370"/><text fill="#000000" font-family="sans-serif" font-size="14" lengthAdjust="spacing" textLength="238.1025" x="446" y="389.1074">-invoiceRepository : InvoiceRepository</text><text fill="#000000" font-family="sans-serif" font-size="14" lengthAdjust="spacing" textLength="309.6885" x="446" y="407.7285">-invoiceDetailRepository : InvoiceDetailRepository</text><text fill="#000000" font-family="sans-serif" font-size="14" lengthAdjust="spacing" textLength="182.8477" x="446" y="426.3496">-billingService : BillingService</text><text fill="#000000" font-family="sans-serif" font-size="14" lengthAdjust="spacing" textLength="289.4814" x="446" y="444.9707">-invoiceStatusMachine : InvoiceStatusMachine</text><line style="stroke:#181818;stroke-width:0.5;" x1="441" x2="760.6885" y1="452.4844" y2="452.4844"/><text fill="#000000" font-family="sans-serif" font-size="14" lengthAdjust="spacing" textLength="131.0928" x="446" y="471.5918">+createDraft(claimId)</text><text fill="#000000" font-family="sans-serif" font-size="14" lengthAdjust="spacing" textLength="140.458" x="446" y="490.2129">+recalculate(invoiceId)</text><text fill="#000000" font-family="sans-serif" font-size="14" lengthAdjust="spacing" textLength="105.4375" x="446" y="508.834">+issue(invoiceId)</text><text fill="#000000" font-family="sans-serif" font-size="14" lengthAdjust="spacing" textLength="113.2236" x="446" y="527.4551">+cancel(invoiceId)</text><text fill="#000000" font-family="sans-serif" font-size="14" lengthAdjust="spacing" textLength="215.9473" x="446" y="546.0762">+applyPayment(invoiceId, amount)</text></g><!--class Invoice--><g class="entity" data-entity="Invoice" data-source-line="42" data-uid="ent0004" id="entity_Invoice"><rect fill="#F1F1F1" height="252.832" rx="2.5" ry="2.5" style="stroke:#181818;stroke-width:0.5;" width="196.4131" x="244" y="614"/><ellipse cx="315.7773" cy="630" fill="#ADD1B2" rx="11" ry="11" style="stroke:#181818;stroke-width:1;"/><path d="M318.543,625.875 Q318.6992,625.6563 318.8867,625.5469 Q319.0742,625.4375 319.293,625.4375 Q319.668,625.4375 319.9023,625.7031 Q320.1367,625.9531 320.1367,626.5625 L320.1367,628.0156 Q320.1367,628.625 319.9023,628.8906 Q319.668,629.1563 319.293,629.1563 Q318.9492,629.1563 318.7461,628.9531 Q318.543,628.7656 318.4336,628.25 Q318.3867,627.8906 318.1992,627.7031 Q317.8711,627.3281 317.2617,627.1094 Q316.6523,626.8906 316.0273,626.8906 Q315.2617,626.8906 314.6211,627.2188 Q313.9961,627.5469 313.4961,628.2969 Q313.0117,629.0469 313.0117,630.0781 L313.0117,631.1719 Q313.0117,632.4063 313.9023,633.2344 Q314.793,634.0469 316.3867,634.0469 Q317.3242,634.0469 317.9805,633.7969 Q318.3711,633.6406 318.793,633.2031 Q319.0586,632.9375 319.1992,632.8594 Q319.3555,632.7813 319.5586,632.7813 Q319.8867,632.7813 320.1367,633.0469 Q320.4023,633.2969 320.4023,633.6406 Q320.4023,633.9844 320.0586,634.3906 Q319.5586,634.9688 318.7617,635.2969 Q317.6836,635.75 316.3867,635.75 Q314.8711,635.75 313.668,635.125 Q312.6836,634.625 311.9961,633.5625 Q311.3086,632.4844 311.3086,631.2031 L311.3086,630.0469 Q311.3086,628.7188 311.918,627.5781 Q312.543,626.4219 313.6367,625.8125 Q314.7305,625.1875 315.9648,625.1875 Q316.6992,625.1875 317.3398,625.3594 Q317.9961,625.5156 318.543,625.875 Z " fill="#000000"/><text fill="#000000" font-family="sans-serif" font-size="14" lengthAdjust="spacing" textLength="44.3584" x="336.2773" y="635.7969">Invoice</text><line style="stroke:#181818;stroke-width:0.5;" x1="245" x2="439.4131" y1="646" y2="646"/><text fill="#000000" font-family="sans-serif" font-size="14" lengthAdjust="spacing" textLength="66.1514" x="250" y="665.1074">id : Integer</text><text fill="#000000" font-family="sans-serif" font-size="14" lengthAdjust="spacing" textLength="141.6133" x="250" y="683.7285">invoiceNumber : String</text><text fill="#000000" font-family="sans-serif" font-size="14" lengthAdjust="spacing" textLength="184.4131" x="250" y="702.3496">totalBeforeDiscount : Decimal</text><text fill="#000000" font-family="sans-serif" font-size="14" lengthAdjust="spacing" textLength="162.627" x="250" y="720.9707">discountAmount : Decimal</text><text fill="#000000" font-family="sans-serif" font-size="14" lengthAdjust="spacing" textLength="136.9443" x="250" y="739.5918">totalAmount : Decimal</text><text fill="#000000" font-family="sans-serif" font-size="14" lengthAdjust="spacing" textLength="116.7168" x="250" y="758.2129">totalPaid : Decimal</text><text fill="#000000" font-family="sans-serif" font-size="14" lengthAdjust="spacing" textLength="133.0684" x="250" y="776.834">status : InvoiceStatus</text><text fill="#000000" font-family="sans-serif" font-size="14" lengthAdjust="spacing" textLength="165.7441" x="250" y="795.4551">createdAt : LocalDateTime</text><text fill="#000000" font-family="sans-serif" font-size="14" lengthAdjust="spacing" textLength="159.5166" x="250" y="814.0762">issuedAt : LocalDateTime</text><text fill="#000000" font-family="sans-serif" font-size="14" lengthAdjust="spacing" textLength="142.4063" x="250" y="832.6973">dueAt : LocalDateTime</text><text fill="#000000" font-family="sans-serif" font-size="14" lengthAdjust="spacing" textLength="159.5166" x="250" y="851.3184">closedAt : LocalDateTime</text><line style="stroke:#181818;stroke-width:0.5;" x1="245" x2="439.4131" y1="858.832" y2="858.832"/></g><!--class InvoiceDetail--><g class="entity" data-entity="InvoiceDetail" data-source-line="56" data-uid="ent0005" id="entity_InvoiceDetail"><rect fill="#F1F1F1" height="196.9688" rx="2.5" ry="2.5" style="stroke:#181818;stroke-width:0.5;" width="183.9512" x="475" y="927"/><ellipse cx="522.6499" cy="943" fill="#ADD1B2" rx="11" ry="11" style="stroke:#181818;stroke-width:1;"/><path d="M525.4155,938.875 Q525.5718,938.6563 525.7593,938.5469 Q525.9468,938.4375 526.1655,938.4375 Q526.5405,938.4375 526.7749,938.7031 Q527.0093,938.9531 527.0093,939.5625 L527.0093,941.0156 Q527.0093,941.625 526.7749,941.8906 Q526.5405,942.1563 526.1655,942.1563 Q525.8218,942.1563 525.6187,941.9531 Q525.4155,941.7656 525.3062,941.25 Q525.2593,940.8906 525.0718,940.7031 Q524.7437,940.3281 524.1343,940.1094 Q523.5249,939.8906 522.8999,939.8906 Q522.1343,939.8906 521.4937,940.2188 Q520.8687,940.5469 520.3687,941.2969 Q519.8843,942.0469 519.8843,943.0781 L519.8843,944.1719 Q519.8843,945.4063 520.7749,946.2344 Q521.6655,947.0469 523.2593,947.0469 Q524.1968,947.0469 524.853,946.7969 Q525.2437,946.6406 525.6655,946.2031 Q525.9312,945.9375 526.0718,945.8594 Q526.228,945.7813 526.4312,945.7813 Q526.7593,945.7813 527.0093,946.0469 Q527.2749,946.2969 527.2749,946.6406 Q527.2749,946.9844 526.9312,947.3906 Q526.4312,947.9688 525.6343,948.2969 Q524.5562,948.75 523.2593,948.75 Q521.7437,948.75 520.5405,948.125 Q519.5562,947.625 518.8687,946.5625 Q518.1812,945.4844 518.1812,944.2031 L518.1812,943.0469 Q518.1812,941.7188 518.7905,940.5781 Q519.4155,939.4219 520.5093,938.8125 Q521.603,938.1875 522.8374,938.1875 Q523.5718,938.1875 524.2124,938.3594 Q524.8687,938.5156 525.4155,938.875 Z " fill="#000000"/><text fill="#000000" font-family="sans-serif" font-size="14" lengthAdjust="spacing" textLength="80.1514" x="543.1499" y="948.7969">InvoiceDetail</text><line style="stroke:#181818;stroke-width:0.5;" x1="476" x2="657.9512" y1="959" y2="959"/><text fill="#000000" font-family="sans-serif" font-size="14" lengthAdjust="spacing" textLength="66.1514" x="481" y="978.1074">id : Integer</text><text fill="#000000" font-family="sans-serif" font-size="14" lengthAdjust="spacing" textLength="99.6064" x="481" y="996.7285">invoice : Invoice</text><text fill="#000000" font-family="sans-serif" font-size="14" lengthAdjust="spacing" textLength="171.9512" x="481" y="1015.3496">itemType : InvoiceItemType</text><text fill="#000000" font-family="sans-serif" font-size="14" lengthAdjust="spacing" textLength="115.9443" x="481" y="1033.9707">description : String</text><text fill="#000000" font-family="sans-serif" font-size="14" lengthAdjust="spacing" textLength="111.2686" x="481" y="1052.5918">quantity : Decimal</text><text fill="#000000" font-family="sans-serif" font-size="14" lengthAdjust="spacing" textLength="108.1582" x="481" y="1071.2129">unitName : String</text><text fill="#000000" font-family="sans-serif" font-size="14" lengthAdjust="spacing" textLength="139.2617" x="481" y="1089.834">pricePerUnit : Decimal</text><text fill="#000000" font-family="sans-serif" font-size="14" lengthAdjust="spacing" textLength="120.5928" x="481" y="1108.4551">totalPrice : Decimal</text><line style="stroke:#181818;stroke-width:0.5;" x1="476" x2="657.9512" y1="1115.9688" y2="1115.9688"/></g><!--class InvoiceStatus--><g class="entity" data-entity="InvoiceStatus" data-source-line="67" data-uid="ent0006" id="entity_InvoiceStatus"><rect fill="#F1F1F1" height="159.7266" rx="2.5" ry="2.5" style="stroke:#181818;stroke-width:0.5;" width="127.9375" x="278" y="945.5"/><ellipse cx="298.3503" cy="961.5" fill="#EB937F" rx="11" ry="11" style="stroke:#181818;stroke-width:1;"/><path d="M297.2097,962.2969 L297.2097,964.7969 L301.5378,964.7969 L301.5378,963.875 Q301.5378,963.2656 301.7722,963 Q302.0222,962.7344 302.3972,962.7344 Q302.7722,962.7344 303.0066,963 Q303.241,963.2656 303.241,963.875 L303.241,966.5 L295.241,966.5 Q294.616,966.5 294.3503,966.2656 Q294.1003,966.0313 294.1003,965.6406 Q294.1003,965.2656 294.366,965.0313 Q294.6316,964.7969 295.241,964.7969 L295.5066,964.7969 L295.5066,958.1406 L295.241,958.1406 Q294.616,958.1406 294.3503,957.9063 Q294.1003,957.6719 294.1003,957.2813 Q294.1003,956.9063 294.3503,956.6719 Q294.616,956.4375 295.241,956.4375 L302.866,956.4375 L302.866,959.0313 Q302.866,959.6406 302.6316,959.9063 Q302.4128,960.1563 302.0222,960.1563 Q301.6472,960.1563 301.4128,959.9063 Q301.1785,959.6406 301.1785,959.0313 L301.1785,958.1406 L297.2097,958.1406 L297.2097,960.5938 L298.6941,960.5938 Q298.6941,959.9375 298.8191,959.75 Q299.0847,959.3438 299.5535,959.3438 Q299.9285,959.3438 300.1628,959.6094 Q300.3972,959.8594 300.3972,960.4688 L300.3972,962.4375 Q300.3972,962.9844 300.2722,963.1719 Q300.0066,963.5625 299.5535,963.5625 Q299.0847,963.5625 298.8191,963.1563 Q298.6941,962.9688 298.6941,962.2969 L297.2097,962.2969 Z " fill="#000000"/><text fill="#000000" font-family="sans-serif" font-size="14" lengthAdjust="spacing" textLength="84.0479" x="313.5393" y="967.2969">InvoiceStatus</text><line style="stroke:#181818;stroke-width:0.5;" x1="279" x2="404.9375" y1="977.5" y2="977.5"/><text fill="#000000" font-family="sans-serif" font-size="14" lengthAdjust="spacing" textLength="46.6621" x="284" y="996.6074">DRAFT</text><text fill="#000000" font-family="sans-serif" font-size="14" lengthAdjust="spacing" textLength="52.124" x="284" y="1015.2285">ISSUED</text><text fill="#000000" font-family="sans-serif" font-size="14" lengthAdjust="spacing" textLength="115.9375" x="284" y="1033.8496">PARTIALLY_PAID</text><text fill="#000000" font-family="sans-serif" font-size="14" lengthAdjust="spacing" textLength="32.6758" x="284" y="1052.4707">PAID</text><text fill="#000000" font-family="sans-serif" font-size="14" lengthAdjust="spacing" textLength="69.2344" x="284" y="1071.0918">OVERDUE</text><text fill="#000000" font-family="sans-serif" font-size="14" lengthAdjust="spacing" textLength="76.2412" x="284" y="1089.7129">CANCELED</text><line style="stroke:#181818;stroke-width:0.5;" x1="279" x2="404.9375" y1="1097.2266" y2="1097.2266"/></g><!--class InvoiceItemType--><g class="entity" data-entity="InvoiceItemType" data-source-line="76" data-uid="ent0007" id="entity_InvoiceItemType"><rect fill="#F1F1F1" height="122.4844" rx="2.5" ry="2.5" style="stroke:#181818;stroke-width:0.5;" width="134.71" x="694.5" y="964.5"/><ellipse cx="709.5" cy="980.5" fill="#EB937F" rx="11" ry="11" style="stroke:#181818;stroke-width:1;"/><path d="M708.3594,981.2969 L708.3594,983.7969 L712.6875,983.7969 L712.6875,982.875 Q712.6875,982.2656 712.9219,982 Q713.1719,981.7344 713.5469,981.7344 Q713.9219,981.7344 714.1563,982 Q714.3906,982.2656 714.3906,982.875 L714.3906,985.5 L706.3906,985.5 Q705.7656,985.5 705.5,985.2656 Q705.25,985.0313 705.25,984.6406 Q705.25,984.2656 705.5156,984.0313 Q705.7813,983.7969 706.3906,983.7969 L706.6563,983.7969 L706.6563,977.1406 L706.3906,977.1406 Q705.7656,977.1406 705.5,976.9063 Q705.25,976.6719 705.25,976.2813 Q705.25,975.9063 705.5,975.6719 Q705.7656,975.4375 706.3906,975.4375 L714.0156,975.4375 L714.0156,978.0313 Q714.0156,978.6406 713.7813,978.9063 Q713.5625,979.1563 713.1719,979.1563 Q712.7969,979.1563 712.5625,978.9063 Q712.3281,978.6406 712.3281,978.0313 L712.3281,977.1406 L708.3594,977.1406 L708.3594,979.5938 L709.8438,979.5938 Q709.8438,978.9375 709.9688,978.75 Q710.2344,978.3438 710.7031,978.3438 Q711.0781,978.3438 711.3125,978.6094 Q711.5469,978.8594 711.5469,979.4688 L711.5469,981.4375 Q711.5469,981.9844 711.4219,982.1719 Q711.1563,982.5625 710.7031,982.5625 Q710.2344,982.5625 709.9688,982.1563 Q709.8438,981.9688 709.8438,981.2969 L708.3594,981.2969 Z " fill="#000000"/><text fill="#000000" font-family="sans-serif" font-size="14" lengthAdjust="spacing" textLength="102.71" x="723.5" y="986.2969">InvoiceItemType</text><line style="stroke:#181818;stroke-width:0.5;" x1="695.5" x2="828.21" y1="996.5" y2="996.5"/><text fill="#000000" font-family="sans-serif" font-size="14" lengthAdjust="spacing" textLength="47.4619" x="700.5" y="1015.6074">LABOR</text><text fill="#000000" font-family="sans-serif" font-size="14" lengthAdjust="spacing" textLength="46.6758" x="700.5" y="1034.2285">PARTS</text><text fill="#000000" font-family="sans-serif" font-size="14" lengthAdjust="spacing" textLength="69.248" x="700.5" y="1052.8496">DELIVERY</text><text fill="#000000" font-family="sans-serif" font-size="14" lengthAdjust="spacing" textLength="49" x="700.5" y="1071.4707">OTHER</text><line style="stroke:#181818;stroke-width:0.5;" x1="695.5" x2="828.21" y1="1078.9844" y2="1078.9844"/></g><!--class InvoiceRepository--><g class="entity" data-entity="InvoiceRepository" data-source-line="86" data-uid="ent0008" id="entity_InvoiceRepository"><rect fill="#F1F1F1" height="103.8633" rx="2.5" ry="2.5" style="stroke:#181818;stroke-width:0.5;" width="202.2783" x="7" y="688.5"/><ellipse cx="48.5513" cy="704.5" fill="#B4A7E5" rx="11" ry="11" style="stroke:#181818;stroke-width:1;"/><path d="M49.5044,701.1406 L49.5044,707.7969 L51.2232,707.7969 Q51.8326,707.7969 52.0982,708.0313 Q52.3638,708.2656 52.3638,708.6563 Q52.3638,709.0313 52.0982,709.2656 Q51.8326,709.5 51.2232,709.5 L46.0826,709.5 Q45.4732,709.5 45.2076,709.2656 Q44.9419,709.0313 44.9419,708.6406 Q44.9419,708.2656 45.2076,708.0313 Q45.4732,707.7969 46.0826,707.7969 L47.8013,707.7969 L47.8013,701.1406 L46.0826,701.1406 Q45.4732,701.1406 45.2076,700.9063 Q44.9419,700.6719 44.9419,700.2813 Q44.9419,699.9063 45.2076,699.6719 Q45.4732,699.4375 46.0826,699.4375 L51.2232,699.4375 Q51.8326,699.4375 52.0982,699.6719 Q52.3638,699.9063 52.3638,700.2813 Q52.3638,700.6719 52.0982,700.9063 Q51.8326,701.1406 51.2232,701.1406 L49.5044,701.1406 Z " fill="#000000"/><text fill="#000000" font-family="sans-serif" font-size="14" font-style="italic" lengthAdjust="spacing" textLength="111.2754" x="68.4516" y="710.2969">InvoiceRepository</text><line style="stroke:#181818;stroke-width:0.5;" x1="8" x2="208.2783" y1="720.5" y2="720.5"/><line style="stroke:#181818;stroke-width:0.5;" x1="8" x2="208.2783" y1="728.5" y2="728.5"/><text fill="#000000" font-family="sans-serif" font-size="14" lengthAdjust="spacing" textLength="78.9824" x="13" y="747.6074">+findById(id)</text><text fill="#000000" font-family="sans-serif" font-size="14" lengthAdjust="spacing" textLength="148.21" x="13" y="766.2285">+findByClaimId(claimId)</text><text fill="#000000" font-family="sans-serif" font-size="14" lengthAdjust="spacing" textLength="190.2783" x="13" y="784.8496">+findOverdueCandidates(now)</text></g><!--class InvoiceDetailRepository--><g class="entity" data-entity="InvoiceDetailRepository" data-source-line="92" data-uid="ent0009" id="entity_InvoiceDetailRepository"><rect fill="#F1F1F1" height="122.4844" rx="2.5" ry="2.5" style="stroke:#181818;stroke-width:0.5;" width="252.085" x="475" y="679.5"/><ellipse cx="523.2583" cy="695.5" fill="#B4A7E5" rx="11" ry="11" style="stroke:#181818;stroke-width:1;"/><path d="M524.2114,692.1406 L524.2114,698.7969 L525.9302,698.7969 Q526.5396,698.7969 526.8052,699.0313 Q527.0708,699.2656 527.0708,699.6563 Q527.0708,700.0313 526.8052,700.2656 Q526.5396,700.5 525.9302,700.5 L520.7896,700.5 Q520.1802,700.5 519.9146,700.2656 Q519.6489,700.0313 519.6489,699.6406 Q519.6489,699.2656 519.9146,699.0313 Q520.1802,698.7969 520.7896,698.7969 L522.5083,698.7969 L522.5083,692.1406 L520.7896,692.1406 Q520.1802,692.1406 519.9146,691.9063 Q519.6489,691.6719 519.6489,691.2813 Q519.6489,690.9063 519.9146,690.6719 Q520.1802,690.4375 520.7896,690.4375 L525.9302,690.4375 Q526.5396,690.4375 526.8052,690.6719 Q527.0708,690.9063 527.0708,691.2813 Q527.0708,691.6719 526.8052,691.9063 Q526.5396,692.1406 525.9302,692.1406 L524.2114,692.1406 Z " fill="#000000"/><text fill="#000000" font-family="sans-serif" font-size="14" font-style="italic" lengthAdjust="spacing" textLength="147.0684" x="543.7583" y="701.2969">InvoiceDetailRepository</text><line style="stroke:#181818;stroke-width:0.5;" x1="476" x2="726.085" y1="711.5" y2="711.5"/><line style="stroke:#181818;stroke-width:0.5;" x1="476" x2="726.085" y1="719.5" y2="719.5"/><text fill="#000000" font-family="sans-serif" font-size="14" lengthAdjust="spacing" textLength="167.6992" x="481" y="738.6074">+findByInvoiceId(invoiceId)</text><text fill="#000000" font-family="sans-serif" font-size="14" lengthAdjust="spacing" textLength="240.085" x="481" y="757.2285">+deleteAutoGeneratedItems(invoiceId)</text><text fill="#000000" font-family="sans-serif" font-size="14" lengthAdjust="spacing" textLength="162.2236" x="481" y="775.8496">+sumTotalPrice(invoiceId)</text><text fill="#000000" font-family="sans-serif" font-size="14" lengthAdjust="spacing" textLength="226.0439" x="481" y="794.4707">+sumTotalBeforeDiscount(invoiceId)</text></g><!--class BillingService--><g class="entity" data-entity="BillingService" data-source-line="102" data-uid="ent0010" id="entity_BillingService"><rect fill="#F1F1F1" height="122.4844" rx="2.5" ry="2.5" style="stroke:#181818;stroke-width:0.5;" width="179.665" x="797" y="385"/><ellipse cx="840.6339" cy="401" fill="#ADD1B2" rx="11" ry="11" style="stroke:#181818;stroke-width:1;"/><path d="M843.3995,396.875 Q843.5558,396.6563 843.7433,396.5469 Q843.9308,396.4375 844.1495,396.4375 Q844.5245,396.4375 844.7589,396.7031 Q844.9933,396.9531 844.9933,397.5625 L844.9933,399.0156 Q844.9933,399.625 844.7589,399.8906 Q844.5245,400.1563 844.1495,400.1563 Q843.8058,400.1563 843.6026,399.9531 Q843.3995,399.7656 843.2901,399.25 Q843.2433,398.8906 843.0558,398.7031 Q842.7276,398.3281 842.1183,398.1094 Q841.5089,397.8906 840.8839,397.8906 Q840.1183,397.8906 839.4776,398.2188 Q838.8526,398.5469 838.3526,399.2969 Q837.8683,400.0469 837.8683,401.0781 L837.8683,402.1719 Q837.8683,403.4063 838.7589,404.2344 Q839.6495,405.0469 841.2433,405.0469 Q842.1808,405.0469 842.837,404.7969 Q843.2276,404.6406 843.6495,404.2031 Q843.9151,403.9375 844.0558,403.8594 Q844.212,403.7813 844.4151,403.7813 Q844.7433,403.7813 844.9933,404.0469 Q845.2589,404.2969 845.2589,404.6406 Q845.2589,404.9844 844.9151,405.3906 Q844.4151,405.9688 843.6183,406.2969 Q842.5401,406.75 841.2433,406.75 Q839.7276,406.75 838.5245,406.125 Q837.5401,405.625 836.8526,404.5625 Q836.1651,403.4844 836.1651,402.2031 L836.1651,401.0469 Q836.1651,399.7188 836.7745,398.5781 Q837.3995,397.4219 838.4933,396.8125 Q839.587,396.1875 840.8214,396.1875 Q841.5558,396.1875 842.1964,396.3594 Q842.8526,396.5156 843.3995,396.875 Z " fill="#000000"/><text fill="#000000" font-family="sans-serif" font-size="14" lengthAdjust="spacing" textLength="84.0342" x="860.997" y="406.7969">BillingService</text><line style="stroke:#181818;stroke-width:0.5;" x1="798" x2="975.665" y1="417" y2="417"/><line style="stroke:#181818;stroke-width:0.5;" x1="798" x2="975.665" y1="425" y2="425"/><text fill="#000000" font-family="sans-serif" font-size="14" lengthAdjust="spacing" textLength="139.6582" x="803" y="444.1074">+calculateFull(claimId)</text><text fill="#000000" font-family="sans-serif" font-size="14" lengthAdjust="spacing" textLength="152.9063" x="803" y="462.7285">+calculateLabor(claimId)</text><text fill="#000000" font-family="sans-serif" font-size="14" lengthAdjust="spacing" textLength="149.7754" x="803" y="481.3496">+calculateParts(claimId)</text><text fill="#000000" font-family="sans-serif" font-size="14" lengthAdjust="spacing" textLength="167.665" x="803" y="499.9707">+calculateDelivery(claimId)</text></g><!--class InvoiceStatusMachine--><g class="entity" data-entity="InvoiceStatusMachine" data-source-line="109" data-uid="ent0011" id="entity_InvoiceStatusMachine"><rect fill="#F1F1F1" height="122.4844" rx="2.5" ry="2.5" style="stroke:#181818;stroke-width:0.5;" width="188.2373" x="762" y="679.5"/><ellipse cx="785.6726" cy="695.5" fill="#ADD1B2" rx="11" ry="11" style="stroke:#181818;stroke-width:1;"/><path d="M788.4382,691.375 Q788.5945,691.1563 788.782,691.0469 Q788.9695,690.9375 789.1882,690.9375 Q789.5632,690.9375 789.7976,691.2031 Q790.032,691.4531 790.032,692.0625 L790.032,693.5156 Q790.032,694.125 789.7976,694.3906 Q789.5632,694.6563 789.1882,694.6563 Q788.8445,694.6563 788.6414,694.4531 Q788.4382,694.2656 788.3289,693.75 Q788.282,693.3906 788.0945,693.2031 Q787.7664,692.8281 787.157,692.6094 Q786.5476,692.3906 785.9226,692.3906 Q785.157,692.3906 784.5164,692.7188 Q783.8914,693.0469 783.3914,693.7969 Q782.907,694.5469 782.907,695.5781 L782.907,696.6719 Q782.907,697.9063 783.7976,698.7344 Q784.6882,699.5469 786.282,699.5469 Q787.2195,699.5469 787.8757,699.2969 Q788.2664,699.1406 788.6882,698.7031 Q788.9539,698.4375 789.0945,698.3594 Q789.2507,698.2813 789.4539,698.2813 Q789.782,698.2813 790.032,698.5469 Q790.2976,698.7969 790.2976,699.1406 Q790.2976,699.4844 789.9539,699.8906 Q789.4539,700.4688 788.657,700.7969 Q787.5789,701.25 786.282,701.25 Q784.7664,701.25 783.5632,700.625 Q782.5789,700.125 781.8914,699.0625 Q781.2039,697.9844 781.2039,696.7031 L781.2039,695.5469 Q781.2039,694.2188 781.8132,693.0781 Q782.4382,691.9219 783.532,691.3125 Q784.6257,690.6875 785.8601,690.6875 Q786.5945,690.6875 787.2351,690.8594 Q787.8914,691.0156 788.4382,691.375 Z " fill="#000000"/><text fill="#000000" font-family="sans-serif" font-size="14" lengthAdjust="spacing" textLength="136.9648" x="801.5999" y="701.2969">InvoiceStatusMachine</text><line style="stroke:#181818;stroke-width:0.5;" x1="763" x2="949.2373" y1="711.5" y2="711.5"/><line style="stroke:#181818;stroke-width:0.5;" x1="763" x2="949.2373" y1="719.5" y2="719.5"/><text fill="#000000" font-family="sans-serif" font-size="14" lengthAdjust="spacing" textLength="148.9961" x="768" y="738.6074">+canTransition(from, to)</text><text fill="#000000" font-family="sans-serif" font-size="14" lengthAdjust="spacing" textLength="176.2373" x="768" y="757.2285">+allowsCostMutation(status)</text><text fill="#000000" font-family="sans-serif" font-size="14" lengthAdjust="spacing" textLength="166.9063" x="768" y="775.8496">+allowsRecalculate(status)</text><text fill="#000000" font-family="sans-serif" font-size="14" lengthAdjust="spacing" textLength="149.0029" x="768" y="794.4707">+allowsPayment(status)</text></g><!--link InvoiceController to InvoiceService--><g class="link" data-entity-1="InvoiceController" data-entity-2="InvoiceService" data-source-line="119" data-uid="lnk12" id="link_InvoiceController_InvoiceService"><path codeLine="119" d="M601,278.38 C601,298.29 601,318.57 601,337.82" fill="none" id="InvoiceController-InvoiceService" style="stroke:#181818;stroke-width:1;"/></g><!--reverse link Invoice to InvoiceDetail--><g class="link" data-entity-1="Invoice" data-entity-2="InvoiceDetail" data-source-line="121" data-uid="lnk13" id="link_Invoice_InvoiceDetail"><path codeLine="121" d="M447.4964,874.1943 C463.9564,894.9043 473.38,906.74 489.24,926.69" fill="none" id="Invoice-backto-InvoiceDetail" style="stroke:#181818;stroke-width:1;"/><polygon fill="#181818" points="440.03,864.8,440.6318,871.9859,447.4964,874.1943,446.8946,867.0083,440.03,864.8" style="stroke:#181818;stroke-width:1;"/></g><!--link Invoice to InvoiceStatus--><g class="link" data-entity-1="Invoice" data-entity-2="InvoiceStatus" data-source-line="122" data-uid="lnk14" id="link_Invoice_InvoiceStatus"><path codeLine="122" d="M342,867.28 C342,893.85 342,915.17 342,939.43" fill="none" id="Invoice-to-InvoiceStatus" style="stroke:#181818;stroke-width:1;"/><polygon fill="#181818" points="342,945.43,346,936.43,342,940.43,338,936.43,342,945.43" style="stroke:#181818;stroke-width:1;"/></g><!--link InvoiceDetail to InvoiceItemType--><g class="link" data-entity-1="InvoiceDetail" data-entity-2="InvoiceItemType" data-source-line="123" data-uid="lnk15" id="link_InvoiceDetail_InvoiceItemType"><path codeLine="123" d="M659.17,1025.5 C670.82,1025.5 676.47,1025.5 688.11,1025.5" fill="none" id="InvoiceDetail-to-InvoiceItemType" style="stroke:#181818;stroke-width:1;"/><polygon fill="#181818" points="694.11,1025.5,685.11,1021.5,689.11,1025.5,685.11,1029.5,694.11,1025.5" style="stroke:#181818;stroke-width:1;"/></g><!--link InvoiceService to InvoiceRepository--><g class="link" data-entity-1="InvoiceService" data-entity-2="InvoiceRepository" data-source-line="125" data-uid="lnk16" id="link_InvoiceService_InvoiceRepository"><path codeLine="125" d="M439.83,502.39 C370.63,530.21 290.93,567.88 226,614 C196.74,634.78 168.98,663.66 147.75,688.47" fill="none" id="InvoiceService-InvoiceRepository" style="stroke:#181818;stroke-width:1;"/></g><!--link InvoiceService to InvoiceDetailRepository--><g class="link" data-entity-1="InvoiceService" data-entity-2="InvoiceDetailRepository" data-source-line="126" data-uid="lnk17" id="link_InvoiceService_InvoiceDetailRepository"><path codeLine="126" d="M601,554.26 C601,596.48 601,643.39 601,679.44" fill="none" id="InvoiceService-InvoiceDetailRepository" style="stroke:#181818;stroke-width:1;"/></g><!--link InvoiceRepository to Invoice--><g class="link" data-entity-1="InvoiceRepository" data-entity-2="Invoice" data-source-line="128" data-uid="lnk18" id="link_InvoiceRepository_Invoice"><path codeLine="128" d="M209,740.5 C220.61,740.5 226.21,740.5 237.81,740.5" fill="none" id="InvoiceRepository-to-Invoice" style="stroke:#181818;stroke-width:1;stroke-dasharray:7,7;"/><polygon fill="#181818" points="243.81,740.5,234.81,736.5,238.81,740.5,234.81,744.5,243.81,740.5" style="stroke:#181818;stroke-width:1;"/></g><!--link InvoiceDetailRepository to InvoiceDetail--><g class="link" data-entity-1="InvoiceDetailRepository" data-entity-2="InvoiceDetail" data-source-line="129" data-uid="lnk19" id="link_InvoiceDetailRepository_InvoiceDetail"><path codeLine="129" d="M593.79,801.52 C589.41,837.94 584.4345,879.3427 579.4345,921.0327" fill="none" id="InvoiceDetailRepository-to-InvoiceDetail" style="stroke:#181818;stroke-width:1;stroke-dasharray:7,7;"/><polygon fill="#181818" points="578.72,926.99,583.7633,918.5304,579.3154,922.0256,575.8202,917.5777,578.72,926.99" style="stroke:#181818;stroke-width:1;"/></g><!--link InvoiceService to BillingService--><g class="link" data-entity-1="InvoiceService" data-entity-2="BillingService" data-source-line="131" data-uid="lnk20" id="link_InvoiceService_BillingService"><path codeLine="131" d="M762.15,446 C773.7,446 779.24,446 790.78,446" fill="none" id="InvoiceService-to-BillingService" style="stroke:#181818;stroke-width:1;"/><polygon fill="#181818" points="796.78,446,787.78,442,791.78,446,787.78,450,796.78,446" style="stroke:#181818;stroke-width:1;"/></g><!--link InvoiceService to InvoiceStatusMachine--><g class="link" data-entity-1="InvoiceService" data-entity-2="InvoiceStatusMachine" data-source-line="132" data-uid="lnk21" id="link_InvoiceService_InvoiceStatusMachine"><path codeLine="132" d="M694.5,554.26 C731.32,596.48 768.2671,638.8675 799.6971,674.9175" fill="none" id="InvoiceService-to-InvoiceStatusMachine" style="stroke:#181818;stroke-width:1;"/><polygon fill="#181818" points="803.64,679.44,800.7406,670.0276,800.3542,675.6712,794.7106,675.2848,803.64,679.44" style="stroke:#181818;stroke-width:1;"/></g><!--SRC=[lLPBRvj04BxpAxZLQUkavqYDX84cAn63W4JAgTh0sbbrsQNxIELM_UyTNkRfnAVw0imthvtP-SOVNhGkrVNLLSamrwPWbvaehZA6bLhd5EybBYnB_Q2ynF1gru2ZjQJFHXEK2PxGtyJ-ObaVxA-dVe2vuJQDmo3mOtlbHCWEd2S_ldZJg0vb8_ugQ4PSmRKKZ15f_x5i-vETIO8ryIJUwHLeqWBb5pKWIOPPPXYWAzeOTn1Loio46UOPOLEfAVFAlI7UWX-Svw5-8H9fKYmRBi2VRGhVdLfE63b3RKzqMu1fd1xvPXXRG3S7johBk3WW3r-9p0rfZTNgmlhxNlCIFtv4hdz-jn8YN-5Hjsfjjxd5f1IAQY4FzdMdsCk6cXxHcB8b_IbIMprJnYZVTq6lxSr8CFISQAoDkiVP2-MaTpiIM__ZVk6oP8S87mh2zR3vk126wpDwuczJb28_ERyfTJTeNfzQapsHrMS3RKtn39DrRISms7mFW1OQimtP2Kaygh8gAO0zaj42Cy3pLkWKCwWsFIMFS9r1BrLrwQUj0A1fGEvKJW81DQycCQL5rS-wqCiGNEr5USQ4MZI1Ie_Ar5onDuhLvrh9O5ZJGpaGebPIvK9K9ccfgU33sluqmBHK7qPrC9pgBIx8KB6Ku2yYyW6mXLBA9fbE30SXt1JZGjRdy6BdMmfFb2GFlWSlaHEdo0c2f- -HWnf1_GWV_TXxyE7DTRQk7u3on6jtkjflu6p2k7MNL77y0867fyfJUkV7xz_Ys8_21ALX_DvDfj05kSDmu1bpj0jXHtc-EQ1yHTiHQmHkCxlZ6QwWbWTTp7DQKRPQSV6h7hnPh1aVZI9smpiTyORY7QF5BU54LfUvgfwQwYbJfCT-dWB7epZKUf-z7w8eX7vlRs4BtqVX5gZZ7DeOisYtTZlkgxVEgAX7AC3FGfx08YorEe5vX55eog67fxCvfkyk8vvApA4pC6QhdHJ5PvYFbcKP4x-KAvI-Ds1QAJHyCuJZ0Q7FqOwZE-ICAnquAGgtoHsAtYxp_A_DUZtPe5QdP7_iiUOw7f7r-cP2dcCcw-4ZDLcJFTtx7gpMapgp9MpDP_Bo6DGwDKINlKvxebd8c-agd-Lqixp2_m40]--></g></svg>